<svg width="30" height="30" viewBox="0 0 30 30" fill="none" xmlns="http://www.w3.org/2000/svg">
<path d="M15 30C6.717 30 0 23.283 0 15C0 6.717 6.717 0 15 0C23.283 0 30 6.717 30 15C30 23.283 23.283 30 15 30Z" fill="url(#paint0_linear_24_19)"/>
<path d="M15.0001 6.60623C17.7331 6.60623 18.0571 6.61523 19.1371 6.66623C20.1361 6.71123 20.6791 6.87923 21.0391 7.02023C21.5161 7.20623 21.8581 7.42823 22.2151 7.78523C22.5721 8.14223 22.7941 8.48423 22.9801 8.96123C23.1211 9.32123 23.2861 9.86423 23.3341 10.8632C23.3821 11.9432 23.3941 12.2672 23.3941 15.0002C23.3941 17.7332 23.3851 18.0572 23.3341 19.1372C23.2891 20.1362 23.1211 20.6792 22.9801 21.0392C22.7941 21.5162 22.5721 21.8582 22.2151 22.2152C21.8581 22.5722 21.5161 22.7942 21.0391 22.9802C20.6791 23.1212 20.1361 23.2862 19.1371 23.3342C18.0571 23.3822 17.7331 23.3942 15.0001 23.3942C12.2671 23.3942 11.9431 23.3852 10.8631 23.3342C9.86406 23.2892 9.32106 23.1212 8.96106 22.9802C8.48406 22.7942 8.14206 22.5722 7.78506 22.2152C7.42806 21.8582 7.20606 21.5162 7.02006 21.0392C6.87906 20.6792 6.71406 20.1362 6.66606 19.1372C6.61806 18.0572 6.60606 17.7332 6.60606 15.0002C6.60606 12.2672 6.61506 11.9432 6.66606 10.8632C6.71106 9.86423 6.87906 9.32123 7.02006 8.96123C7.20606 8.48423 7.42806 8.14223 7.78506 7.78523C8.14206 7.42823 8.48406 7.20623 8.96106 7.02023C9.32106 6.87923 9.86406 6.71423 10.8631 6.66623C11.9431 6.61523 12.2671 6.60623 15.0001 6.60623ZM15.0001 4.76123C12.2191 4.76123 11.8711 4.77323 10.7791 4.82423C9.69006 4.87523 8.94606 5.04623 8.29206 5.30123C7.62006 5.55923 7.04706 5.91023 6.48006 6.48023C5.91006 7.05023 5.56206 7.62023 5.29806 8.29523C5.04606 8.94623 4.87206 9.69023 4.82106 10.7822C4.77006 11.8742 4.75806 12.2222 4.75806 15.0032C4.75806 17.7842 4.77006 18.1322 4.82106 19.2242C4.87206 20.3132 5.04306 21.0572 5.29806 21.7112C5.55906 22.3802 5.91006 22.9532 6.48006 23.5202C7.05006 24.0902 7.62006 24.4382 8.29506 24.7022C8.94606 24.9542 9.69006 25.1282 10.7821 25.1792C11.8741 25.2302 12.2221 25.2422 15.0031 25.2422C17.7841 25.2422 18.1321 25.2302 19.2241 25.1792C20.3131 25.1282 21.0571 24.9572 21.7111 24.7022C22.3801 24.4412 22.9531 24.0902 23.5201 23.5202C24.0901 22.9502 24.4381 22.3802 24.7021 21.7052C24.9541 21.0542 25.1281 20.3102 25.1791 19.2182C25.2301 18.1262 25.2421 17.7782 25.2421 14.9972C25.2421 12.2162 25.2301 11.8682 25.1791 10.7762C25.1281 9.68723 24.9571 8.94323 24.7021 8.28923C24.4411 7.62023 24.0901 7.04723 23.5201 6.48023C22.9501 5.91023 22.3801 5.56223 21.7051 5.29823C21.0541 5.04623 20.3101 4.87223 19.2181 4.82123C18.1291 4.77323 17.7811 4.76123 15.0001 4.76123Z" fill="white"/>
<path d="M15 9.74121C12.096 9.74121 9.74097 12.0962 9.74097 15.0002C9.74097 17.9042 12.096 20.2592 15 20.2592C17.904 20.2592 20.259 17.9042 20.259 15.0002C20.259 12.0962 17.904 9.74121 15 9.74121ZM15 18.4142C13.116 18.4142 11.586 16.8872 11.586 15.0002C11.586 13.1132 13.116 11.5862 15 11.5862C16.884 11.5862 18.414 13.1132 18.414 15.0002C18.414 16.8872 16.884 18.4142 15 18.4142Z" fill="white"/>
<path d="M20.466 10.7642C21.1453 10.7642 21.696 10.2135 21.696 9.5342C21.696 8.85489 21.1453 8.3042 20.466 8.3042C19.7867 8.3042 19.236 8.85489 19.236 9.5342C19.236 10.2135 19.7867 10.7642 20.466 10.7642Z" fill="white"/>
<defs>
<linearGradient id="paint0_linear_24_19" x1="4.39341" y1="25.6066" x2="25.6066" y2="4.39341" gradientUnits="userSpaceOnUse">
<stop stop-color="#FFD521"/>
<stop offset="0.055" stop-color="#FFD020"/>
<stop offset="0.124" stop-color="#FEC01E"/>
<stop offset="0.2" stop-color="#FCA71B"/>
<stop offset="0.282" stop-color="#FA8316"/>
<stop offset="0.368" stop-color="#F85510"/>
<stop offset="0.456" stop-color="#F51E09"/>
<stop offset="0.5" stop-color="#F30005"/>
<stop offset="0.503" stop-color="#F20007"/>
<stop offset="0.597" stop-color="#E1003B"/>
<stop offset="0.688" stop-color="#D30067"/>
<stop offset="0.776" stop-color="#C70088"/>
<stop offset="0.859" stop-color="#BF00A0"/>
<stop offset="0.936" stop-color="#BB00AF"/>
<stop offset="1" stop-color="#B900B4"/>
</linearGradient>
</defs>
</svg>
