<svg width="30" height="30" viewBox="0 0 30 30" fill="none" xmlns="http://www.w3.org/2000/svg">
<path d="M25.2436 23.4768H4.75623C4.0903 23.476 3.45188 23.2111 2.98102 22.7402C2.51016 22.2693 2.24533 21.6309 2.24463 20.9649V8.31213C2.24533 7.64621 2.51016 7.00775 2.98102 6.53685C3.45188 6.06595 4.0903 5.80106 4.75623 5.80029H25.2436C25.9095 5.80106 26.5479 6.06595 27.0188 6.53685C27.4897 7.00775 27.7545 7.64621 27.7552 8.31213V20.9649C27.7545 21.6309 27.4897 22.2693 27.0188 22.7402C26.5479 23.2111 25.9095 23.476 25.2436 23.4768ZM4.75623 6.76029C4.34481 6.76074 3.95038 6.92439 3.65949 7.21532C3.3686 7.50626 3.20501 7.90072 3.20463 8.31213V20.9649C3.20501 21.3763 3.3686 21.7708 3.65949 22.0617C3.95038 22.3527 4.34481 22.5163 4.75623 22.5168H25.2436C25.655 22.5163 26.0494 22.3527 26.3403 22.0617C26.6312 21.7708 26.7948 21.3763 26.7952 20.9649V8.31213C26.7948 7.90072 26.6312 7.50626 26.3403 7.21532C26.0494 6.92439 25.655 6.76074 25.2436 6.76029H4.75623Z" fill="white"/>
<path d="M15 17.4634C14.883 17.4635 14.77 17.4208 14.6823 17.3434L3.11426 7.13187L3.74954 6.41187L15 16.344L26.251 6.41307L26.8863 7.13307L15.3183 17.3446C15.2303 17.4218 15.1171 17.464 15 17.4634Z" fill="white"/>
<path d="M2.85303 21.9696L10.6242 13.1148L11.3464 13.7484L3.57519 22.603L2.85303 21.9696ZM18.6779 13.7393L19.3998 13.1057L27.1713 21.96L26.4493 22.5936L18.6779 13.7393Z" fill="white"/>
</svg>
