<svg width="30" height="30" viewBox="0 0 30 30" fill="none" xmlns="http://www.w3.org/2000/svg">
<path d="M7.8003 22.2004C11.9924 26.3925 16.7288 29.2088 20.795 29.9272C21.0674 29.9757 21.3436 30.0003 21.6203 30.0007C22.7907 30.0007 23.8769 29.5472 24.7401 28.6839L27.6236 25.8005C28.0202 25.4031 28.2429 24.8646 28.2429 24.3031C28.2429 23.7417 28.0202 23.2032 27.6236 22.8058L22.4433 17.6256C22.0459 17.229 21.5074 17.0063 20.946 17.0063C20.3846 17.0063 19.8461 17.229 19.4487 17.6256L16.8324 20.2419C14.3555 18.4472 11.5535 15.6452 9.75879 13.1684L12.3751 10.552C12.7717 10.1546 12.9945 9.61613 12.9945 9.0547C12.9945 8.49326 12.7717 7.95476 12.3751 7.55736L7.19491 2.37715C6.79752 1.98057 6.25902 1.75785 5.6976 1.75785C5.13618 1.75785 4.59769 1.98057 4.2003 2.37715L1.31678 5.26061C0.253423 6.32391 -0.188081 7.725 0.0735406 9.20572C0.791724 13.272 3.60821 18.0083 7.8003 22.2004ZM2.64258 6.58641L5.5261 3.70313C5.57186 3.65819 5.63344 3.63301 5.69757 3.63301C5.76171 3.63301 5.82328 3.65819 5.86905 3.70313L11.0493 8.88334C11.0939 8.92927 11.1189 8.99081 11.1189 9.05487C11.1189 9.11893 11.0939 9.18047 11.0493 9.22641L8.29536 11.9803C8.01953 12.2549 7.85026 12.6185 7.81775 13.0063C7.78524 13.3941 7.89161 13.7809 8.11788 14.0975C10.0835 16.8613 13.1394 19.9172 15.9032 21.8828C16.2198 22.1091 16.6066 22.2156 16.9944 22.1831C17.3823 22.1506 17.746 21.9813 18.0205 21.7054L20.7744 18.9515C20.8202 18.9066 20.8818 18.8814 20.946 18.8814C21.0101 18.8814 21.0718 18.9066 21.1175 18.9515L26.2978 24.1318C26.3427 24.1776 26.3678 24.2391 26.3678 24.3033C26.3678 24.3674 26.3427 24.429 26.2978 24.4748L23.4142 27.3582C22.7872 27.9852 21.994 28.235 21.1211 28.0809C17.4792 27.4373 12.995 24.7434 9.1261 20.8746C5.25721 17.0058 2.56336 12.5215 1.91995 8.87953C1.76567 8.00643 2.01557 7.21342 2.64258 6.58641ZM30.0007 12.423C30.0007 12.6717 29.9019 12.9101 29.7261 13.086C29.5503 13.2618 29.3118 13.3605 29.0632 13.3605C28.8146 13.3605 28.5761 13.2618 28.4003 13.086C28.2245 12.9101 28.1257 12.6717 28.1257 12.423C28.1257 6.6068 23.3939 1.875 17.5777 1.875C17.329 1.875 17.0906 1.77623 16.9147 1.60041C16.7389 1.4246 16.6402 1.18614 16.6402 0.9375C16.6402 0.68886 16.7389 0.450403 16.9147 0.274587C17.0906 0.0987721 17.329 0 17.5777 0C24.4278 0 30.0007 5.57297 30.0007 12.423ZM17.5777 7.25256C17.329 7.25256 17.0906 7.15379 16.9147 6.97797C16.7389 6.80216 16.6402 6.5637 16.6402 6.31506C16.6402 6.06642 16.7389 5.82796 16.9147 5.65215C17.0906 5.47633 17.329 5.37756 17.5777 5.37756C19.4456 5.37967 21.2364 6.12264 22.5572 7.44346C23.8781 8.76429 24.621 10.5551 24.6231 12.423C24.6231 12.6717 24.5244 12.9101 24.3486 13.086C24.1727 13.2618 23.9343 13.3605 23.6856 13.3605C23.437 13.3605 23.1986 13.2618 23.0227 13.086C22.8469 12.9101 22.7481 12.6717 22.7481 12.423C22.7466 11.0522 22.2014 9.73798 21.2321 8.76866C20.2627 7.79933 18.9485 7.25409 17.5777 7.25256ZM15.5954 10.7439C15.5954 10.4952 15.6942 10.2568 15.87 10.081C16.0458 9.90514 16.2843 9.80637 16.5329 9.80637C17.5399 9.8075 18.5053 10.208 19.2173 10.9201C19.9294 11.6321 20.3299 12.5975 20.331 13.6045C20.331 13.8531 20.2323 14.0916 20.0565 14.2674C19.8806 14.4432 19.6422 14.542 19.3935 14.542C19.1449 14.542 18.9064 14.4432 18.7306 14.2674C18.5548 14.0916 18.456 13.8531 18.456 13.6045C18.4555 13.0946 18.2527 12.6058 17.8921 12.2453C17.5316 11.8847 17.0428 11.6819 16.5329 11.6814C16.2843 11.6814 16.0458 11.5826 15.87 11.4068C15.6942 11.231 15.5954 10.9925 15.5954 10.7439Z" fill="white"/>
</svg>
