<svg width="30" height="30" viewBox="0 0 30 30" fill="none" xmlns="http://www.w3.org/2000/svg">
<g clip-path="url(#clip0_24_26)">
<path d="M15 0C6.71601 0 0 6.71601 0 15C0 23.284 6.71601 30 15 30C23.284 30 30 23.284 30 15C30 6.71601 23.284 0 15 0Z" fill="black"/>
<path d="M16.641 13.6425L23.0623 6.17822H21.5407L15.9651 12.6593L11.5118 6.17822H6.37555L13.1097 15.9788L6.37555 23.8062H7.89728L13.7853 16.962L18.4882 23.8062H23.6245L16.6406 13.6425H16.641ZM8.44557 7.32377H10.7829L21.5414 22.7128H19.2041L8.44557 7.32377Z" fill="white"/>
</g>
<defs>
<clipPath id="clip0_24_26">
<rect width="30" height="30" fill="white"/>
</clipPath>
</defs>
</svg>
