<svg width="30" height="30" viewBox="0 0 30 30" fill="none" xmlns="http://www.w3.org/2000/svg">
<g clip-path="url(#clip0_24_9)">
<path d="M15 30C23.2843 30 30 23.2843 30 15C30 6.71573 23.2843 0 15 0C6.71573 0 0 6.71573 0 15C0 23.2843 6.71573 30 15 30Z" fill="#29A71A"/>
<path d="M21.6136 8.38655C20.053 6.81035 17.9805 5.84372 15.7699 5.66102C13.5594 5.47831 11.3563 6.09156 9.55806 7.39014C7.75983 8.68872 6.48484 10.5872 5.96306 12.743C5.44128 14.8989 5.70707 17.1702 6.71248 19.1473L5.72554 23.9388C5.7153 23.9865 5.71501 24.0358 5.72469 24.0836C5.73437 24.1314 5.75381 24.1767 5.78179 24.2167C5.82279 24.2773 5.88131 24.324 5.94953 24.3505C6.01775 24.377 6.09244 24.382 6.16361 24.365L10.8596 23.2519C12.8312 24.2318 15.0865 24.4805 17.2243 23.9537C19.362 23.4269 21.2435 22.1587 22.534 20.3749C23.8245 18.5911 24.4402 16.4072 24.2717 14.212C24.1032 12.0168 23.1613 9.9525 21.6136 8.38655ZM20.1494 20.0729C19.0696 21.1497 17.6792 21.8605 16.174 22.1051C14.6688 22.3497 13.1249 22.1159 11.7596 21.4365L11.1051 21.1127L8.22611 21.7945L8.23464 21.7587L8.83123 18.861L8.51077 18.2286C7.8132 16.8586 7.56713 15.303 7.80779 13.7846C8.04846 12.2662 8.76352 10.8629 9.85055 9.77575C11.2164 8.41031 13.0687 7.64325 15 7.64325C16.9313 7.64325 18.7835 8.41031 20.1494 9.77575C20.161 9.78909 20.1736 9.80162 20.1869 9.81325C21.5358 11.1822 22.2889 13.0289 22.2819 14.9508C22.2748 16.8727 21.5083 18.7139 20.1494 20.0729Z" fill="white"/>
<path d="M19.8937 17.9471C19.5409 18.5028 18.9835 19.1829 18.2829 19.3517C17.0556 19.6483 15.1721 19.3619 12.8284 17.1767L12.7994 17.1511C10.7386 15.2403 10.2034 13.65 10.3329 12.3886C10.4045 11.6727 11.0011 11.025 11.5039 10.6022C11.5834 10.5344 11.6777 10.4861 11.7792 10.4612C11.8807 10.4363 11.9866 10.4355 12.0885 10.4588C12.1904 10.4822 12.2854 10.5291 12.3659 10.5957C12.4464 10.6623 12.5102 10.7469 12.5522 10.8426L13.3107 12.5471C13.36 12.6577 13.3783 12.7795 13.3636 12.8996C13.3489 13.0197 13.3017 13.1336 13.2272 13.2289L12.8437 13.7267C12.7614 13.8294 12.7117 13.9545 12.7011 14.0857C12.6905 14.217 12.7194 14.3484 12.784 14.463C12.9988 14.8397 13.5136 15.3937 14.0846 15.9068C14.7255 16.4863 15.4363 17.0164 15.8863 17.1971C16.0067 17.2463 16.1391 17.2583 16.2664 17.2316C16.3937 17.2049 16.5101 17.1406 16.6005 17.0471L17.0454 16.5988C17.1312 16.5142 17.238 16.4538 17.3548 16.4239C17.4716 16.3939 17.5942 16.3955 17.7102 16.4284L19.5119 16.9397C19.6113 16.9702 19.7024 17.023 19.7782 17.0941C19.8541 17.1652 19.9126 17.2527 19.9495 17.3499C19.9863 17.4471 20.0005 17.5515 19.9908 17.655C19.9811 17.7585 19.9479 17.8584 19.8937 17.9471Z" fill="white"/>
</g>
<defs>
<clipPath id="clip0_24_9">
<rect width="30" height="30" fill="white"/>
</clipPath>
</defs>
</svg>
